<?xml version="1.0" encoding="utf-8"?>
<!-- Generator: Adobe Illustrator 18.0.0, SVG Export Plug-In . SVG Version: 6.00 Build 0)  -->
<!DOCTYPE svg PUBLIC "-//W3C//DTD SVG 1.1//EN" "http://www.w3.org/Graphics/SVG/1.1/DTD/svg11.dtd">
<svg version="1.1" id="Calque_1" xmlns="http://www.w3.org/2000/svg" xmlns:xlink="http://www.w3.org/1999/xlink" x="0px" y="0px"
	 viewBox="0 0 722.2 722.2" enable-background="new 0 0 722.2 722.2" xml:space="preserve">
<g>
	<path fill="#B1B2B4" d="M519.8,269c32.9,15.8,62.1,36.7,88.7,61.6c46.3,43.4,78.5,95.5,97.3,155.9c8.7,28,14.5,56.7,14.9,86.3
		c0.3,25.9,1.1,111.9,1.5,137.8c0.1,3.4-0.4,6.9-0.7,11.1c-3.9,0.2-7,0.5-10.1,0.5C477,722.2,242.6,722.1,8.2,722
		c-2.2,0-4.4-0.2-6.6-0.4c-0.2,0-0.4-0.4-0.4-0.6c0-0.3,0.2-0.6,0.3-0.9c119.2,0,238.3,0,358.5,0c0-11.6,0-52.1,0-62.6
		c120,0,239.9,0,360.1,0c0-12.5,0-53.5,0-65c-5,0-9.1,0-13.3,0c-115.6-0.1-231.2-0.2-346.8-0.2c0-12.7,0.1-25.3,0.1-38
		c8-0.1,16,0.2,23.9-0.2c12.6-0.7,18.8-8.1,18.7-21.6c-0.1-12.8-6.5-20.1-18.7-20.6c-8-0.4-16-0.2-23.9-0.2c0-8.7,0-17.5,0-26.2
		c0-0.3,0-0.7,0-1c43.3,0.2,86.5,0.4,129.8,0.6c19.3,0.1,30.4-11,30.4-30.3c0.1-42.3,0.1-84.6,0-127
		C520.3,308.1,520,288.6,519.8,269z M666.5,554.2c7.4,0,14.8,0.2,22.2,0c13.3-0.4,20-7.2,20.2-20.5c0.2-14.2-6.2-21.5-19.6-21.8
		c-15.1-0.3-30.2-0.3-45.3,0c-12.9,0.2-19.6,7.6-19.7,20.9c0,13.8,6.6,21.1,20.1,21.4C651.7,554.3,659.1,554.2,666.5,554.2z
		 M513.6,554.2c7.7,0,15.4,0.2,23.1,0c12-0.4,19.2-8.2,19.5-20.5c0.3-13.3-6.5-21.5-19-21.8c-15.7-0.4-31.5-0.4-47.2,0
		c-12.5,0.3-18.4,7.7-18.3,21.8c0.1,13,6.4,20,18.8,20.5C498.1,554.4,505.9,554.1,513.6,554.2z"/>
	<path fill="#E1E2E5" d="M360.1,485.4c0,8.7,0,17.5,0,26.2l0.1,0.4c-7.7-0.1-15.4-0.5-23-0.2c-12.4,0.5-18.7,7.7-18.8,20.6
		c-0.1,13.8,6.1,21.1,18.8,21.6c7.7,0.3,15.4-0.1,23-0.2l-0.1,0.4c0,12.7-0.1,25.3-0.1,38l0.1,0.5c-3.8-0.1-7.7-0.3-11.5-0.3
		c-111.6,0-223.2,0-334.8,0c-4.1,0-8.3-0.4-12.4-0.6c-2.2-31,2.5-61.3,10.7-90.8c6.2-22.3,14.3-44.4,24.8-65
		c12.6-24.6,27.8-47.9,43.5-70.7c7.8-11.3,19.6-19.7,28.9-30c20.2-22.5,45-39,70.2-55c6.3-4,13.6-6.5,20.4-9.7
		c0.1,3.8,0.4,7.7,0.4,11.5c0,56.8,0,113.7,0,170.5c0,21.6,11,32.3,32.7,32.4C275.4,485.1,317.8,485.3,360.1,485.4z M207,554.2
		c7.7,0,15.4,0,23.1,0c0.6,0,1.3,0,1.9,0c12.1-1.1,18-8.3,17.9-21.7c-0.1-12.6-6.1-20.1-18-20.5c-16-0.5-32.1-0.5-48.2,0
		c-12,0.3-18.4,8.2-18.4,21.1c0,12.9,6.4,20.5,18.5,21.1C191.5,554.5,199.3,554.1,207,554.2z M54.7,554.2c7.7,0,15.4,0.2,23.1-0.1
		c12.1-0.4,19.2-8,19.4-20.5c0.3-13.5-6.3-21.4-18.9-21.8c-15.7-0.4-31.5-0.4-47.2,0c-12.6,0.3-18.4,7.7-18.3,21.8
		c0.1,13,6.4,20,18.8,20.4C39.3,554.4,47,554.2,54.7,554.2z"/>
	<path fill="#2E85B4" d="M360.1,485.4c-42.4-0.1-84.7-0.3-127.1-0.4c-21.7-0.1-32.6-10.8-32.7-32.4c0-56.8,0-113.7,0-170.5
		c0-3.8-0.3-7.7-0.4-11.5c29.2-16.9,61.1-26.6,94-32.2c21.8-3.7,44.2-4,66.3-5.9c-0.1,4.2-0.1,8.4-0.2,12.6
		c-2.2,0.2-4.5,0.4-6.7,0.6c-33.9,1.5-66.5,25.8-78.6,58.7c-13.1,35.5-4.9,73.6,21.3,98c17.2,18.8,39.2,26.3,64.1,27.3
		c0,18.3,0.1,36.6,0.1,54.9C360.1,484.7,360.1,485.1,360.1,485.4z"/>
	<path fill="#14669F" d="M360,245.1c0.1-4.2,0.1-8.4,0.2-12.6c56.2-1,109.2,12,159.6,36.5c0.2,19.5,0.5,39.1,0.6,58.6
		c0.1,42.3,0.1,84.6,0,127c0,19.3-11.1,30.4-30.4,30.3c-43.3-0.1-86.5-0.4-129.8-0.6c0-18.3-0.1-36.6-0.1-54.9
		c7.9-0.9,16.1-0.8,23.7-3c34.4-9.8,57.6-31.9,66.2-66.8c8.1-33,0.4-62.7-24.2-87.2C407.8,253.7,385.4,245.9,360,245.1z"/>
	<path fill="#14669F" d="M360,592.2c115.6,0.1,231.2,0.2,346.8,0.2c4.1,0,8.3,0,13.3,0c0,11.6,0,52.6,0,65c-120.2,0-240.2,0-360.1,0
		c-3.8-0.1-7.7-0.3-11.5-0.3c-105.7,0-211.4,0-317.1,0c-10,0-19.9,0.2-29.9,0.4c-0.5-0.7-0.9-1.4-1.4-2.1c119.6,0,239.2,0,360.1,0
		c0-11.8,0-52.3,0-62.7L360,592.2z"/>
	<path fill="#2E85B4" d="M360.1,592.8c0,10.5,0,51,0,62.7c-120.9,0-240.5,0-360.1,0c0.5-11.2,0.9-52.5,1.4-63.7
		c4.1,0.2,8.3,0.6,12.4,0.6c111.6,0,223.2,0,334.8,0C352.4,592.5,356.3,592.7,360.1,592.8z"/>
	<path fill="#E1E2E5" d="M1.4,657.6c10-0.1,19.9-0.4,29.9-0.4c105.7,0,211.4,0,317.1,0c3.8,0,7.7,0.2,11.5,0.3c0,10.5,0,51,0,62.6
		c-120.1,0-239.3,0-358.5,0C1.4,709.3,1.4,668.4,1.4,657.6z"/>
	<path fill="#14669F" d="M666.5,554.2c-7.4,0-14.8,0.2-22.2,0c-13.5-0.4-20.2-7.6-20.1-21.4c0-13.2,6.8-20.6,19.7-20.9
		c15.1-0.3,30.2-0.3,45.3,0c13.5,0.3,19.8,7.6,19.6,21.8c-0.1,13.2-6.8,20.1-20.2,20.5C681.3,554.3,673.9,554.2,666.5,554.2z"/>
	<path fill="#14669F" d="M513.6,554.2c-7.7,0-15.4,0.2-23.1,0c-12.3-0.4-18.7-7.5-18.8-20.5c-0.1-14.1,5.8-21.5,18.3-21.8
		c15.7-0.4,31.5-0.4,47.2,0c12.5,0.3,19.3,8.5,19,21.8c-0.3,12.3-7.5,20.1-19.5,20.5C529,554.4,521.3,554.2,513.6,554.2z
		 M538.9,532.8c-0.1-9.6-7.7-17.3-17.1-17.1c-9.2,0.2-17.2,8.5-16.9,17.6c0.2,8.8,7.9,16.3,17,16.5C531.5,550,539,542.5,538.9,532.8
		z"/>
	<path fill="#14669F" d="M360.1,511.6c8,0.1,16-0.2,23.9,0.2c12.2,0.6,18.6,7.9,18.7,20.6c0.1,13.5-6.1,20.9-18.7,21.6
		c-8,0.4-15.9,0.2-23.9,0.2c0,0,0.1-0.4,0.1-0.4c0-14,0-27.9,0-41.9L360.1,511.6z"/>
	<path fill="#2E85B4" d="M207,554.1c-7.7,0-15.4,0.3-23.1-0.1c-12.1-0.6-18.5-8.2-18.5-21.1c0-12.9,6.4-20.8,18.4-21.1
		c16-0.4,32.1-0.5,48.2,0c11.9,0.4,17.9,7.9,18,20.5c0.1,13.4-5.8,20.6-17.9,21.7c-0.6,0.1-1.3,0-1.9,0
		C222.4,554.2,214.7,554.2,207,554.1z"/>
	<path fill="#2E85B4" d="M54.7,554.2c-7.7,0-15.4,0.2-23.1,0c-12.5-0.4-18.7-7.4-18.8-20.4c-0.1-14.2,5.8-21.5,18.3-21.8
		c15.7-0.4,31.5-0.4,47.2,0c12.6,0.3,19.2,8.3,18.9,21.8c-0.2,12.5-7.3,20.1-19.4,20.5C70.1,554.4,62.4,554.2,54.7,554.2z"/>
	<path fill="#2E85B4" d="M360.2,512c0,14,0,27.9,0,41.9c-7.7,0.1-15.4,0.5-23,0.2c-12.8-0.5-18.9-7.8-18.8-21.6
		c0.1-13,6.4-20.2,18.8-20.6C344.8,511.5,352.5,511.9,360.2,512z"/>
	<path fill="#0D0E0E" d="M425.7,272.6c24.7,24.5,32.3,54.2,24.2,87.2c-8.5,34.9-31.7,57-66.2,66.8c-7.6,2.2-15.8,2-23.7,3
		c-24.8-0.9-46.8-8.5-64.1-27.3c25.2-25.5,50.4-51.1,75.7-76.5C389.5,307.9,407.6,290.3,425.7,272.6z"/>
	<path fill="#333435" d="M425.7,272.6c-18,17.7-36.2,35.4-54,53.2c-25.3,25.4-50.5,51-75.7,76.5c-26.1-24.3-34.4-62.4-21.3-98
		c12.1-32.9,44.7-57.1,78.6-58.7c2.2-0.1,4.5-0.4,6.7-0.6C385.4,245.9,407.8,253.7,425.7,272.6z"/>
	<path fill="#C11626" d="M538.9,532.8c0.1,9.7-7.5,17.2-17.1,17c-9.1-0.2-16.7-7.6-17-16.5c-0.3-9.1,7.7-17.4,16.9-17.6
		C531.2,515.6,538.9,523.2,538.9,532.8z"/>
</g>
</svg>
