<?xml version="1.0" encoding="utf-8"?>
<!-- Generator: Adobe Illustrator 18.0.0, SVG Export Plug-In . SVG Version: 6.00 Build 0)  -->
<!DOCTYPE svg PUBLIC "-//W3C//DTD SVG 1.1//EN" "http://www.w3.org/Graphics/SVG/1.1/DTD/svg11.dtd">
<svg version="1.1" id="Calque_1" xmlns="http://www.w3.org/2000/svg" xmlns:xlink="http://www.w3.org/1999/xlink" x="0px" y="0px"
   viewBox="0 0 370.5 475.5" enable-background="new 0 0 370.5 475.5" xml:space="preserve">
<g>
  <path fill="#96662D" d="M4.1,389.3c-1.5-1.8-1.4-4.1-1.5-6.2c-0.7-10.8-1.8-21.5-2-32.3c-0.1-6.6-0.7-13.2-0.5-19.8
    c0.4-11.2,0.6-22.4,1.7-33.6c1.7-17.8,4.3-35.4,8.8-52.7c1.2-4.5-0.5-8.9-0.8-13.3c-0.5-6.3-1-12.6-1.3-18.8
    c-0.4-11.8-0.5-23.6,0-35.4c0.9-20.2,2.9-40.4,8.8-59.9C23,98.1,33.4,81.2,45.7,65.5C67.6,37.4,95.6,18,129.6,7.4
    c10.6-3.3,21.6-5.4,32.7-6.5c9.7-1,19.4-1.2,29-0.5C222.7,2.8,251.4,13,277,31.3c12.9,9.2,24.4,19.8,34.2,32.2
    c0.5,0.6,1.2,1.2,1.8,1.7c0.1,0.9,0.6,1.6,1.1,2.2c11.3,14.7,19.6,31,25.4,48.5c3.8,11.5,6.3,23.2,7.5,35.4
    c0.9,9.5,1.1,18.9,0,28.4c-0.4,3-0.6,6-0.3,9.1c0.3,4.4,0.8,8.9-0.4,13.3c0-4.6,0-9.2,0-13.8c-0.3,0-0.5,0-0.8-0.1
    c-1.9,13.9-5.5,27.5-9.8,40.9c-8.8,27.4-20.5,53.5-34.4,78.7c-10,18.2-21.3,35.5-33.2,52.4c-2.5,3.6-4.7,7.6-8.1,10.6
    c-0.2-1.3,0.4-2.5,0.9-3.6c5.3-11.7,10-23.7,13.3-36.1c3.6-13.4,6.6-26.7,4.5-40.8c-1.6-10.5-4.1-20.5-8.6-30
    c-6.6-14-15.6-26.1-27.8-35.8c-11-8.7-23.1-15.2-36.7-18.8c-0.9-0.2-1.7-0.3-2.2,0.6c-3.5-3-6.2-6.8-9.2-10.2
    c-4.9-5.5-9.7-11.1-14.8-16.9c-8.6,8.8-16,18.3-24.1,27.1c-0.9-1.1-2-0.8-3.1-0.5c-9.3,2.8-18.1,6.7-26.4,11.8
    c-13.1,8.2-23.7,19-32,32.1c-8.3,13.3-13.1,27.8-14.5,43.3c-1,10.9,0.3,21.7,2.9,32.4c4.2,17.7,11,34.3,19,50.5
    c-1.4,0.5-1.5,1.9-1.9,3c-6.6,17.4-13.3,34.8-19.6,52.3c-1.7,4.7-4.3,9.1-4.5,14.3c0,0.2,0,0.4,0,0.5c-0.5-0.1-1-0.1-1.5-0.2
    c-2-4.4-4-8.8-6.1-13.2c-7.3-15.3-13.8-30.9-20.2-46.6c-3.9-10.9-7.8-21.9-11.7-32.9c-3.5,2-5,5-7.1,7.4
    c-6.2,7-12.6,13.9-18.4,21.2C8,384.2,4.9,386,4.1,389.3z"/>
  <path fill="#644827" d="M47.2,386.1c-5.9,0.3-11.7,1.3-17.5,1.8c-8.2,0.7-16.5,1.4-24.7,1.7c-0.3-0.1-0.6-0.2-0.8-0.3
    c0.8-3.4,3.9-5.1,5.8-7.5c5.8-7.3,12.2-14.2,18.4-21.2c2.1-2.4,3.6-5.4,7.1-7.4C39.4,364.2,43.3,375.2,47.2,386.1z"/>
  <path fill="#F5F8F4" d="M370.5,122.6c-1.1,0-1.7-0.5-1.7-1.7C369.9,120.9,370.5,121.5,370.5,122.6z"/>
  <path fill="#9D713C" d="M227.8,422.2c-7,8.8-13.9,17.8-21.6,26c-7.3,7.7-14.1,15.9-22.2,22.8c-1.6,1.3-3.2,2.7-4.4,4.5
    c-0.3-0.1-0.6-0.1-0.8-0.2c0-84,0-167.9,0-251.9c10.3-2.6,20.5-5.6,30.9-9.1c-2.4-3.1-4.4-5.6-6.4-8.1c0.6-0.9,1.3-0.8,2.2-0.6
    c13.6,3.6,25.7,10.1,36.7,18.8c12.2,9.7,21.2,21.8,27.8,35.8c4.5,9.5,7,19.6,8.6,30c2.1,14.1-0.9,27.5-4.5,40.8
    c-3.3,12.4-8,24.4-13.3,36.1c-0.5,1.2-1.1,2.3-0.9,3.6c-1.6,3-4.7,5.3-4.3,9.3c-1.4,0-1.7,1.2-2.3,2.1
    c-6.4,10.9-12.7,21.9-20.2,32.1C231.3,416.9,228.8,419.1,227.8,422.2z"/>
  <path fill="#A87B45" d="M178.8,223.4c0,84,0,167.9,0,251.9c-4-2.5-6.6-6.4-10.1-9.4c-1.1-1-2.3-2.1-3.4-3.1c-0.9-1-1.8-2.1-2.8-3.1
    c-8.2-8.2-15.8-16.9-23.3-25.8c-3.5-4.2-6.5-8.7-10.3-12.6c-0.3-1.8-1.5-3-2.5-4.3c-9.5-13-17.9-26.8-25.4-41.1
    c-8-16.2-14.8-32.9-19-50.5c-2.5-10.7-3.8-21.5-2.9-32.4c1.4-15.5,6.2-30,14.5-43.3c8.2-13.1,18.8-23.9,32-32.1
    c8.2-5.2,17-9.1,26.4-11.8c1.1-0.3,2.2-0.6,3.1,0.5c-1.8,2.9-5.1,4.8-6.5,8.5C158.8,217.6,168.8,220.5,178.8,223.4z"/>
  <path fill="#644827" d="M255.6,380.1c-0.4-3.9,2.7-6.3,4.3-9.3c3.4-3,5.6-6.9,8.1-10.6c11.9-16.9,23.2-34.3,33.2-52.4
    c13.9-25.2,25.6-51.3,34.4-78.7c4.3-13.3,7.9-26.9,9.8-40.9c0.3,0,0.5,0,0.8,0.1c0,4.6,0,9.2,0,13.8c0,13.8-1,27.4-2.6,41.5
    c6.9,18.9,12,38.7,15.7,58.8c2,11.1,3.6,22.3,4.6,33.6c1.3,13.5,2.4,27.1,2.4,40.7c0,0.3-0.1,0.6-0.1,0.8
    c-4.8-2.5-8.1-6.8-12.1-10.2c-7.2-6.2-13.9-13-21.2-19.1c-3.1-2.6-5.6-5.9-9.7-8.1c-4.5,13.4-9,26.4-13.4,39.4
    c1.6,0.9,3,0.6,4.4,0.6c6.5,0,12.9,0,19.4,0c1.5,0,3.2-0.5,4.3,1.1c-1.4,17.2-5.1,33.9-9.8,50.4c-1.8-0.3-2.3-2-3-3.2
    c-4.1-6.7-7.9-13.6-11.9-20.3c-2.9-4.7-5.2-9.8-8.9-14.5c-3.1,7.1-6.1,13.9-8.8,20.7c-1.1,2.8-3.4,5.2-3.4,8.5
    c-3.4,6.9-6.8,13.9-10.2,20.8c-0.4,0.8-0.5,1.9-1.7,2.1c-0.2-0.4-0.5-0.7-1-0.6l0,0c0.4-1.6-0.1-3-0.7-4.5
    c-3.1-8.1-6.1-16.2-9.2-24.3C264.8,404.4,260.2,392.2,255.6,380.1z"/>
  <path fill="#644827" d="M129.1,421.3c-10.7,5-21.4,10.1-32.1,15c-7.2,3.3-14.4,6.6-21.9,9.2c0.2-5.2,2.8-9.6,4.5-14.3
    c6.4-17.5,13.1-34.8,19.6-52.3c0.4-1.2,0.5-2.5,1.9-3c7.5,14.3,15.9,28,25.4,41.1C127.5,418.3,128.8,419.5,129.1,421.3z"/>
  <path fill="#644827" d="M178.8,223.4c-10-2.9-20-5.8-30.1-8.8c1.3-3.8,4.6-5.6,6.5-8.5c8.1-8.8,15.5-18.2,24.1-27.1
    c5.1,5.8,9.9,11.4,14.8,16.9c3,3.4,5.7,7.2,9.2,10.2c2,2.5,3.9,5,6.4,8.1C199.3,217.9,189.1,220.9,178.8,223.4z"/>
  <path fill="#96662D" d="M255.6,380.1c4.6,12.1,9.1,24.3,13.7,36.4c3,8.1,6.1,16.2,9.2,24.3c0.6,1.5,1.1,2.9,0.7,4.5
    c-5.9-1.7-11.4-4.3-16.8-6.9c-6.6-3.2-13.9-4.8-20.2-8.5c-4.7-2.8-9.5-5.1-14.3-7.6c1-3.2,3.5-5.3,5.3-7.8
    c7.5-10.3,13.8-21.2,20.2-32.1C253.9,381.3,254.2,380.1,255.6,380.1z"/>
  <path fill="#96662D" d="M337.9,381.2c-1.1-1.6-2.8-1.1-4.3-1.1c-6.5,0-12.9,0-19.4,0c-1.4,0-2.8,0.4-4.4-0.6
    c4.4-13,8.8-26,13.4-39.4c4.1,2.3,6.6,5.6,9.7,8.1c7.3,6.1,14,13,21.2,19.1c4,3.4,7.3,7.7,12.1,10.2c-2.1,1.7-4.7,1.5-7,1.5
    c-6.2,0-12.2,1.4-18.4,1C339.7,380.1,338.6,380.1,337.9,381.2z"/>
  <path fill="#96662D" d="M292,422.9c0-3.3,2.3-5.7,3.4-8.5c2.7-6.9,5.8-13.6,8.8-20.7c3.7,4.6,6,9.7,8.9,14.5
    c4.1,6.7,7.9,13.5,11.9,20.3c0.7,1.2,1.2,2.9,3,3.2c-1.3,1.5-2.7,0.7-4.1,0.3c-10.1-2.4-20.2-5-29.9-8.7
    C293.4,423.1,292.7,423.1,292,422.9z"/>
  <path fill="#96662D" d="M279.2,445.3c0.5-0.1,0.8,0.2,1,0.6C279.6,445.9,279.3,445.8,279.2,445.3z"/>
</g>
</svg>
